
            <svg id="trend-chart" width="660" height="400" title="Stack Overflow Trends Chart" version="1.1" xmlns="http://www.w3.org/2000/svg"><g></g><g class="chart-area" transform="translate(100, 20)"><g transform="translate(0,300)" fill="none" font-size="10" font-family="sans-serif" text-anchor="middle"><path class="domain" stroke="#000" d="M0.5,6V0.5H410.5V6"></path><g class="tick" opacity="1" transform="translate(12.884301126787074,0)"><line stroke="#000" y2="6" x1="0.5" x2="0.5"></line><text fill="#000" y="9" x="0.5" dy="0.71em" style="font-size: 12px;">2009</text></g><g class="tick" opacity="1" transform="translate(43.612990990836835,0)"><line stroke="#000" y2="6" x1="0.5" x2="0.5"></line><text fill="#000" y="9" x="0.5" dy="0.71em" style="font-size: 12px;">2010</text></g><g class="tick" opacity="1" transform="translate(74.34168085488659,0)"><line stroke="#000" y2="6" x1="0.5" x2="0.5"></line><text fill="#000" y="9" x="0.5" dy="0.71em" style="font-size: 12px;">2011</text></g><g class="tick" opacity="1" transform="translate(105.07037071893636,0)"><line stroke="#000" y2="6" x1="0.5" x2="0.5"></line><text fill="#000" y="9" x="0.5" dy="0.71em" style="font-size: 12px;">2012</text></g><g class="tick" opacity="1" transform="translate(135.88324877439447,0)"><line stroke="#000" y2="6" x1="0.5" x2="0.5"></line><text fill="#000" y="9" x="0.5" dy="0.71em" style="font-size: 12px;">2013</text></g><g class="tick" opacity="1" transform="translate(166.61193863844423,0)"><line stroke="#000" y2="6" x1="0.5" x2="0.5"></line><text fill="#000" y="9" x="0.5" dy="0.71em" style="font-size: 12px;">2014</text></g><g class="tick" opacity="1" transform="translate(197.34062850249398,0)"><line stroke="#000" y2="6" x1="0.5" x2="0.5"></line><text fill="#000" y="9" x="0.5" dy="0.71em" style="font-size: 12px;">2015</text></g><g class="tick" opacity="1" transform="translate(228.06931836654374,0)"><line stroke="#000" y2="6" x1="0.5" x2="0.5"></line><text fill="#000" y="9" x="0.5" dy="0.71em" style="font-size: 12px;">2016</text></g><g class="tick" opacity="1" transform="translate(258.88219642200187,0)"><line stroke="#000" y2="6" x1="0.5" x2="0.5"></line><text fill="#000" y="9" x="0.5" dy="0.71em" style="font-size: 12px;">2017</text></g><g class="tick" opacity="1" transform="translate(289.61088628605165,0)"><line stroke="#000" y2="6" x1="0.5" x2="0.5"></line><text fill="#000" y="9" x="0.5" dy="0.71em" style="font-size: 12px;">2018</text></g><g class="tick" opacity="1" transform="translate(320.3395761501014,0)"><line stroke="#000" y2="6" x1="0.5" x2="0.5"></line><text fill="#000" y="9" x="0.5" dy="0.71em" style="font-size: 12px;">2019</text></g><g class="tick" opacity="1" transform="translate(351.06826601415116,0)"><line stroke="#000" y2="6" x1="0.5" x2="0.5"></line><text fill="#000" y="9" x="0.5" dy="0.71em" style="font-size: 12px;">2020</text></g><g class="tick" opacity="1" transform="translate(381.88114406960926,0)"><line stroke="#000" y2="6" x1="0.5" x2="0.5"></line><text fill="#000" y="9" x="0.5" dy="0.71em" style="font-size: 12px;">2021</text></g></g><g class="grid-lines" transform="translate(0,300)" fill="none" font-size="10" font-family="sans-serif" text-anchor="middle"><path class="domain" stroke="#000" d="M0.5,-300V0.5H410.5V-300"></path><g class="tick" opacity="1" transform="translate(12.884301126787074,0)"><line stroke="#000" y2="-300" x1="0.5" x2="0.5" style="stroke: #ccc; fill: none;"></line></g><g class="tick" opacity="1" transform="translate(43.612990990836835,0)"><line stroke="#000" y2="-300" x1="0.5" x2="0.5" style="stroke: #ccc; fill: none;"></line></g><g class="tick" opacity="1" transform="translate(74.34168085488659,0)"><line stroke="#000" y2="-300" x1="0.5" x2="0.5" style="stroke: #ccc; fill: none;"></line></g><g class="tick" opacity="1" transform="translate(105.07037071893636,0)"><line stroke="#000" y2="-300" x1="0.5" x2="0.5" style="stroke: #ccc; fill: none;"></line></g><g class="tick" opacity="1" transform="translate(135.88324877439447,0)"><line stroke="#000" y2="-300" x1="0.5" x2="0.5" style="stroke: #ccc; fill: none;"></line></g><g class="tick" opacity="1" transform="translate(166.61193863844423,0)"><line stroke="#000" y2="-300" x1="0.5" x2="0.5" style="stroke: #ccc; fill: none;"></line></g><g class="tick" opacity="1" transform="translate(197.34062850249398,0)"><line stroke="#000" y2="-300" x1="0.5" x2="0.5" style="stroke: #ccc; fill: none;"></line></g><g class="tick" opacity="1" transform="translate(228.06931836654374,0)"><line stroke="#000" y2="-300" x1="0.5" x2="0.5" style="stroke: #ccc; fill: none;"></line></g><g class="tick" opacity="1" transform="translate(258.88219642200187,0)"><line stroke="#000" y2="-300" x1="0.5" x2="0.5" style="stroke: #ccc; fill: none;"></line></g><g class="tick" opacity="1" transform="translate(289.61088628605165,0)"><line stroke="#000" y2="-300" x1="0.5" x2="0.5" style="stroke: #ccc; fill: none;"></line></g><g class="tick" opacity="1" transform="translate(320.3395761501014,0)"><line stroke="#000" y2="-300" x1="0.5" x2="0.5" style="stroke: #ccc; fill: none;"></line></g><g class="tick" opacity="1" transform="translate(351.06826601415116,0)"><line stroke="#000" y2="-300" x1="0.5" x2="0.5" style="stroke: #ccc; fill: none;"></line></g><g class="tick" opacity="1" transform="translate(381.88114406960926,0)"><line stroke="#000" y2="-300" x1="0.5" x2="0.5" style="stroke: #ccc; fill: none;"></line></g></g><text x="205" y="360" class="axis-label x-axis-label" style="text-anchor: middle; font-weight: bold;">Year</text><g fill="none" font-size="10" font-family="sans-serif" text-anchor="end"><path class="domain" stroke="#000" d="M-6,300.5H0.5V0.5H-6"></path><g class="tick" opacity="1" transform="translate(0,300)"><line stroke="#000" x2="-6" y1="0.5" y2="0.5"></line><text fill="#000" x="-9" y="0.5" dy="0.32em" style="font-size: 12px;">0.00%</text></g><g class="tick" opacity="1" transform="translate(0,280)"><line stroke="#000" x2="-6" y1="0.5" y2="0.5"></line><text fill="#000" x="-9" y="0.5" dy="0.32em" style="font-size: 12px;">0.20%</text></g><g class="tick" opacity="1" transform="translate(0,260)"><line stroke="#000" x2="-6" y1="0.5" y2="0.5"></line><text fill="#000" x="-9" y="0.5" dy="0.32em" style="font-size: 12px;">0.40%</text></g><g class="tick" opacity="1" transform="translate(0,240)"><line stroke="#000" x2="-6" y1="0.5" y2="0.5"></line><text fill="#000" x="-9" y="0.5" dy="0.32em" style="font-size: 12px;">0.60%</text></g><g class="tick" opacity="1" transform="translate(0,220)"><line stroke="#000" x2="-6" y1="0.5" y2="0.5"></line><text fill="#000" x="-9" y="0.5" dy="0.32em" style="font-size: 12px;">0.80%</text></g><g class="tick" opacity="1" transform="translate(0,200)"><line stroke="#000" x2="-6" y1="0.5" y2="0.5"></line><text fill="#000" x="-9" y="0.5" dy="0.32em" style="font-size: 12px;">1.00%</text></g><g class="tick" opacity="1" transform="translate(0,180)"><line stroke="#000" x2="-6" y1="0.5" y2="0.5"></line><text fill="#000" x="-9" y="0.5" dy="0.32em" style="font-size: 12px;">1.20%</text></g><g class="tick" opacity="1" transform="translate(0,160)"><line stroke="#000" x2="-6" y1="0.5" y2="0.5"></line><text fill="#000" x="-9" y="0.5" dy="0.32em" style="font-size: 12px;">1.40%</text></g><g class="tick" opacity="1" transform="translate(0,140)"><line stroke="#000" x2="-6" y1="0.5" y2="0.5"></line><text fill="#000" x="-9" y="0.5" dy="0.32em" style="font-size: 12px;">1.60%</text></g><g class="tick" opacity="1" transform="translate(0,120)"><line stroke="#000" x2="-6" y1="0.5" y2="0.5"></line><text fill="#000" x="-9" y="0.5" dy="0.32em" style="font-size: 12px;">1.80%</text></g><g class="tick" opacity="1" transform="translate(0,99.99999999999997)"><line stroke="#000" x2="-6" y1="0.5" y2="0.5"></line><text fill="#000" x="-9" y="0.5" dy="0.32em" style="font-size: 12px;">2.00%</text></g><g class="tick" opacity="1" transform="translate(0,80.00000000000003)"><line stroke="#000" x2="-6" y1="0.5" y2="0.5"></line><text fill="#000" x="-9" y="0.5" dy="0.32em" style="font-size: 12px;">2.20%</text></g><g class="tick" opacity="1" transform="translate(0,60)"><line stroke="#000" x2="-6" y1="0.5" y2="0.5"></line><text fill="#000" x="-9" y="0.5" dy="0.32em" style="font-size: 12px;">2.40%</text></g><g class="tick" opacity="1" transform="translate(0,40)"><line stroke="#000" x2="-6" y1="0.5" y2="0.5"></line><text fill="#000" x="-9" y="0.5" dy="0.32em" style="font-size: 12px;">2.60%</text></g><g class="tick" opacity="1" transform="translate(0,20)"><line stroke="#000" x2="-6" y1="0.5" y2="0.5"></line><text fill="#000" x="-9" y="0.5" dy="0.32em" style="font-size: 12px;">2.80%</text></g><g class="tick" opacity="1" transform="translate(0,0)"><line stroke="#000" x2="-6" y1="0.5" y2="0.5"></line><text fill="#000" x="-9" y="0.5" dy="0.32em" style="font-size: 12px;">3.00%</text></g></g><g class="grid-lines" fill="none" font-size="10" font-family="sans-serif" text-anchor="end"><path class="domain" stroke="#000" d="M410,300.5H0.5V0.5H410"></path><g class="tick" opacity="1" transform="translate(0,300)"><line stroke="#000" x2="410" y1="0.5" y2="0.5" style="stroke: #ccc; fill: none;"></line></g><g class="tick" opacity="1" transform="translate(0,280)"><line stroke="#000" x2="410" y1="0.5" y2="0.5" style="stroke: #ccc; fill: none;"></line></g><g class="tick" opacity="1" transform="translate(0,260)"><line stroke="#000" x2="410" y1="0.5" y2="0.5" style="stroke: #ccc; fill: none;"></line></g><g class="tick" opacity="1" transform="translate(0,240)"><line stroke="#000" x2="410" y1="0.5" y2="0.5" style="stroke: #ccc; fill: none;"></line></g><g class="tick" opacity="1" transform="translate(0,220)"><line stroke="#000" x2="410" y1="0.5" y2="0.5" style="stroke: #ccc; fill: none;"></line></g><g class="tick" opacity="1" transform="translate(0,200)"><line stroke="#000" x2="410" y1="0.5" y2="0.5" style="stroke: #ccc; fill: none;"></line></g><g class="tick" opacity="1" transform="translate(0,180)"><line stroke="#000" x2="410" y1="0.5" y2="0.5" style="stroke: #ccc; fill: none;"></line></g><g class="tick" opacity="1" transform="translate(0,160)"><line stroke="#000" x2="410" y1="0.5" y2="0.5" style="stroke: #ccc; fill: none;"></line></g><g class="tick" opacity="1" transform="translate(0,140)"><line stroke="#000" x2="410" y1="0.5" y2="0.5" style="stroke: #ccc; fill: none;"></line></g><g class="tick" opacity="1" transform="translate(0,120)"><line stroke="#000" x2="410" y1="0.5" y2="0.5" style="stroke: #ccc; fill: none;"></line></g><g class="tick" opacity="1" transform="translate(0,99.99999999999997)"><line stroke="#000" x2="410" y1="0.5" y2="0.5" style="stroke: #ccc; fill: none;"></line></g><g class="tick" opacity="1" transform="translate(0,80.00000000000003)"><line stroke="#000" x2="410" y1="0.5" y2="0.5" style="stroke: #ccc; fill: none;"></line></g><g class="tick" opacity="1" transform="translate(0,60)"><line stroke="#000" x2="410" y1="0.5" y2="0.5" style="stroke: #ccc; fill: none;"></line></g><g class="tick" opacity="1" transform="translate(0,40)"><line stroke="#000" x2="410" y1="0.5" y2="0.5" style="stroke: #ccc; fill: none;"></line></g><g class="tick" opacity="1" transform="translate(0,20)"><line stroke="#000" x2="410" y1="0.5" y2="0.5" style="stroke: #ccc; fill: none;"></line></g><g class="tick" opacity="1" transform="translate(0,0)"><line stroke="#000" x2="410" y1="0.5" y2="0.5" style="stroke: #ccc; fill: none;"></line></g></g><g class="lines"><path class="line" d="M2.609833933659021,300L5.135479675909686,300L7.748821450877388,300L10.274467193128054,300L12.884301126787074,300L15.494135060446094,300L17.851404419880048,300L20.457730512230388,300L22.983376254481055,300L25.593210188140073,300L28.118855930390737,300L30.728689864049763,300L33.33852379770878,300L35.86416953995945,300L38.47751131492714,300L41.00315705717781,300L43.612990990836835,300L46.22282492449585,300L48.58009428392981,300L51.18642037628015,300L53.71206611853081,300L56.32190005218983,300L58.8475457944405,300L61.457379728099525,300L64.06721366175853,300L66.5928594040092,300L69.20620117897691,300L71.73184692122757,300L74.34168085488659,300L76.95151478854561,300L79.30878414797957,299.9004251845L81.91511024032991,299.7899755322L84.44075598258058,300L87.05058991623959,299.7974663035L89.57623565849026,300L92.18606959214928,300L94.7959035258083,299.9017546618L97.32154926805897,299.604590702L99.93489104302667,299.8160682755L102.46053678527733,299.9034087068L105.07037071893636,299.4826114326L107.68020465259538,299.6763230297L110.12166220343768,297.7513435723L112.72798829578801,297.9786043041L115.2536340380387,296.7939637047L117.86346797169772,296.1659675948L120.38911371394838,295.3315980082L122.9989476476074,293.7495560765L125.60878158126641,292.9360829441L128.13442732351706,293.0946171536L130.74776909848478,291.8536370117L133.27341484073546,290.7946995286L135.88324877439447,289.985264944L138.4930827080535,287.7884646949L140.85035206748745,289.9910903348L143.4566781598378,288.8676658425L145.98232390208847,286.3813581281L148.59215783574746,284.4086703005L151.11780357799813,283.5924104964L153.72763751165715,283.2710907956L156.3374714453162,285.4209768551L158.86311718756684,280.4811743918L161.47645896253454,279.7807690124L164.0021047047852,279.894506719L166.61193863844423,276.0741436295L169.22177257210325,278.3509387481L171.5790419315372,274.5680918831L174.18536802388755,274.6663371231L176.7110137661382,273.7310445606L179.32084769979724,271.5816273063L181.84649344204792,272.6097167596L184.4563273757069,270.4857276097L187.06616130936592,270.4629881309L189.5918070516166,271.7922376417L192.2051488265843,268.9887938147L194.73079456883497,273.1170635562L197.34062850249398,270.7660741199L199.950462436153,267.9923563837L202.30773179558696,264.3089762396L204.9140578879373,262.5360994092L207.43970363018798,263.7114027439L210.04953756384697,258.7708354528L212.57518330609767,255.6845729815L215.18501723975666,258.07383663219997L217.79485117341568,254.5539438462L220.32049691566638,248.9214654033L222.93383869063405,249.5770798749L225.45948443288475,247.9573857338L228.06931836654374,249.2408363865L230.67915230020276,244.4518698709L233.1206098510451,244.2485038017L235.72693594339543,238.86516543279998L238.25258168564608,231.9630185227L240.8624156193051,229.777738887L243.3880613615558,216.1546266003L245.9978952952148,224.0372877595L248.60772922887378,222.7422389464L251.13337497112448,222.48329679059998L253.74671674609215,213.5201114681L256.2723624883429,212.015072471L258.88219642200187,212.37033950080001L261.49203035566086,209.8901858659L263.84929971509484,200.61831927309998L266.4556258074452,196.2492728413L268.98127154969586,196.04629779869998L271.59110548335485,188.00036220200002L274.1167512256055,183.4148176007L276.7265851592646,178.5531038642L279.33641909292356,177.69125912650003L281.86206483517424,171.0997745878L284.47540661014193,172.1041318367L287.0010523523926,170.1352786435L289.61088628605165,162.2669302145L292.22072021971064,154.1301222617L294.57798957914457,144.1807223287L297.1843156714949,145.8192213281L299.70996141374565,144.76690931890002L302.31979534740464,123.89525368249997L304.84544108965525,111.0064665683L307.4552750233143,114.5800014019L310.06510895697335,123.0842865029L312.59075469922396,118.6075200464L315.2040964741917,104.10996907719999L317.72974221644233,114.19190719559998L320.3395761501014,109.82610346979999L322.9494100837604,95.92401455519999L325.30667944319435,93.5485494301L327.9130055355447,87.32816564769999L330.4386512777953,86.76825022770001L333.04848521145436,85.02555848650002L335.57413095370504,66.08265526349999L338.1839648873641,49.5733882943L340.7937988210231,75.7210025546L343.31944456327375,52.784569410499955L345.93278633824144,62.01182786909993L348.4584320804921,47.44588942479999L351.06826601415116,41.87512039409995L353.67809994781015,38.397152470799995L356.11955749865245,45.80868486999998L358.7258835910028,34.56691481569999L361.2515293332535,30.042192725199982L363.8613632669125,14.919097077699973L366.38700900916314,18.64244219579996L368.9968429428222,25.240787624999996L371.60667687648123,21.70052928130002L374.13232261873185,7.613968055599969L376.7456643936996,9.053249588399979L379.2713101359502,24.257587942700013L381.88114406960926,60.45514731230003L384.49097800326825,34.669287843300026L386.84824736270224,21.755254089699974L389.4545734550526,35.380134849100045L391.9802191973032,38.56290402789995L394.59005313096225,22.731276966599978L397.1156988732129,21.920835844899955L399.7255328068719,20.6619307231L402.33536674053096,31.626376568599994L404.86101248278163,18.875782647599976L407.4743542577493,8.07034147769997L410,35.623559314099964" data-legend="pandas" style="stroke: rgb(31, 119, 180); fill: none;"></path><path class="line" d="M2.609833933659021,297.8378378379L5.135479675909686,298.6131336246L7.748821450877388,297.6086090076L10.274467193128054,296.6513185434L12.884301126787074,295.5453735523L15.494135060446094,295.9783982535L17.851404419880048,298.0244962466L20.457730512230388,296.6823072184L22.983376254481055,297.258127693L25.593210188140073,295.3573086676L28.118855930390737,298.1301421092L30.728689864049763,297.2227365303L33.33852379770878,297.5534420013L35.86416953995945,292.5010415221L38.47751131492714,289.7661969614L41.00315705717781,293.0514725534L43.612990990836835,295.2897900593L46.22282492449585,291.0037559319L48.58009428392981,292.4796081684L51.18642037628015,291.5482754458L53.71206611853081,294.1870603965L56.32190005218983,292.2311152867L58.8475457944405,294.0422010758L61.457379728099525,292.254801233L64.06721366175853,293.0909689094L66.5928594040092,292.1159274035L69.20620117897691,290.465183473L71.73184692122757,290.7460960093L74.34168085488659,293.5887765878L76.95151478854561,292.4848484849L79.30878414797957,288.4493213977L81.91511024032991,289.3937643736L84.44075598258058,290.6966507943L87.05058991623959,291.3923178969L89.57623565849026,290.53134126049997L92.18606959214928,288.4001571592L94.7959035258083,288.210559409L97.32154926805897,286.2595268928L99.93489104302667,290.159652737L102.46053678527733,289.5681403279L105.07037071893636,287.5826743816L107.68020465259538,287.8621136107L110.12166220343768,287.4824792187L112.72798829578801,287.8716258242L115.2536340380387,287.1758548188L117.86346797169772,286.3508446374L120.38911371394838,285.6411272069L122.9989476476074,284.2318346474L125.60878158126641,282.5300976036L128.13442732351706,283.4404896788L130.74776909848478,281.0597060521L133.27341484073546,284.4846145281L135.88324877439447,283.6702409278L138.4930827080535,281.4200833799L140.85035206748745,281.0235701145L143.4566781598378,277.5009667554L145.98232390208847,278.1860692141L148.59215783574746,281.3030802384L151.11780357799813,276.4389285674L153.72763751165715,280.1491464723L156.3374714453162,276.1654144436L158.86311718756684,275.4791355172L161.47645896253454,272.3973419663L164.0021047047852,275.5948379752L166.61193863844423,274.1643191742L169.22177257210325,270.3525171033L171.5790419315372,272.7342920568L174.18536802388755,273.9454605372L176.7110137661382,271.0586616479L179.32084769979724,273.1843988682L181.84649344204792,272.8360827368L184.4563273757069,271.2834106473L187.06616130936592,274.3287729154L189.5918070516166,269.8188550899L192.2051488265843,272.3608861377L194.73079456883497,272.8585737827L197.34062850249398,270.1608168553L199.950462436153,267.0369043354L202.30773179558696,265.7916893928L204.9140578879373,268.5769546671L207.43970363018798,266.1486965895L210.04953756384697,267.873378275L212.57518330609767,266.5446834356L215.18501723975666,268.9435826905L217.79485117341568,269.8346850187L220.32049691566638,267.5494722065L222.93383869063405,262.3945522919L225.45948443288475,265.9272570276L228.06931836654374,261.9167282856L230.67915230020276,259.79577107119997L233.1206098510451,259.6850739857L235.72693594339543,258.014602726L238.25258168564608,263.2951389998L240.8624156193051,257.9432096605L243.3880613615558,255.0278724593L245.9978952952148,257.9402951948L248.60772922887378,255.1387582315L251.13337497112448,254.3071549011L253.74671674609215,251.86605405289998L256.2723624883429,253.6136000448L258.88219642200187,254.4439940858L261.49203035566086,246.36046230259998L263.84929971509484,245.52782436729998L266.4556258074452,242.1661705986L268.98127154969586,247.969062686L271.59110548335485,245.8960819935L274.1167512256055,243.08263122149998L276.7265851592646,244.3676513252L279.33641909292356,243.4827802987L281.86206483517424,234.9270376083L284.47540661014193,235.75352280869998L287.0010523523926,235.8658457866L289.61088628605165,236.92480076549998L292.22072021971064,233.3957610689L294.57798957914457,238.2679998132L297.1843156714949,239.8440170277L299.70996141374565,242.32994263129999L302.31979534740464,239.05073649759998L304.84544108965525,233.81426191819997L307.4552750233143,237.8110245252L310.06510895697335,237.1851396391L312.59075469922396,236.93432862129998L315.2040964741917,231.32007551409998L317.72974221644233,230.42732030259998L320.3395761501014,237.8747185373L322.9494100837604,225.9100405385L325.30667944319435,223.9488714994L327.9130055355447,225.3238607102L330.4386512777953,232.1809222859L333.04848521145436,233.3840032191L335.57413095370504,228.3502459819L338.1839648873641,223.98555060619998L340.7937988210231,229.8063751805L343.31944456327375,220.686981931L345.93278633824144,220.5570544791L348.4584320804921,221.4530051273L351.06826601415116,229.2082886156L353.67809994781015,217.27148855709999L356.11955749865245,221.4047686705L358.7258835910028,216.62855348069996L361.2515293332535,212.7512790177L363.8613632669125,213.49633165799997L366.38700900916314,212.46653757209998L368.9968429428222,219.9071465903L371.60667687648123,215.9837231803L374.13232261873185,207.7460637611L376.7456643936996,206.1221752834L379.2713101359502,209.3765823728L381.88114406960926,224.3638034548L384.49097800326825,220.2232227789L386.84824736270224,215.3313860297L389.4545734550526,217.8301782896L391.9802191973032,218.5106911985L394.59005313096225,222.0020962339L397.1156988732129,217.7550063627L399.7255328068719,228.0659727959L402.33536674053096,224.3283613638L404.86101248278163,214.118403399L407.4743542577493,215.44826338389998L410,222.4648996506" data-legend="numpy" style="stroke: rgb(255, 127, 14); fill: none;"></path><path class="line" d="M2.609833933659021,298.5585585586L5.135479675909686,300L7.748821450877388,300L10.274467193128054,298.3256592717L12.884301126787074,299.3636247932L15.494135060446094,298.2764563944L17.851404419880048,298.518372185L20.457730512230388,296.6823072184L22.983376254481055,297.258127693L25.593210188140073,299.2857397951L28.118855930390737,298.1301421092L30.728689864049763,295.9883972104L33.33852379770878,296.6359827518L35.86416953995945,297.2226079712L38.47751131492714,296.8511375266L41.00315705717781,297.060238388L43.612990990836835,296.4112686166L46.22282492449585,294.3773474575L48.58009428392981,293.6365915271L51.18642037628015,295.5729061859L53.71206611853081,296.3184715845L56.32190005218983,294.9411913495L58.8475457944405,295.3661563923L61.457379728099525,294.4677151664L64.06721366175853,295.2294785327L66.5928594040092,294.4811491825L69.20620117897691,294.5102571512L71.73184692122757,296.6743782534L74.34168085488659,294.9715894806L76.95151478854561,293.090909091L79.30878414797957,292.6314636503L81.91511024032991,293.9092904324L84.44075598258058,293.3976231444L87.05058991623959,293.6201885589L89.57623565849026,294.2191346643L92.18606959214928,293.0775131434L94.7959035258083,294.0070343663L97.32154926805897,291.7952570655L99.93489104302667,292.3668334315L102.46053678527733,290.9204184335L105.07037071893636,292.4116343443L107.68020465259538,290.3706101311L110.12166220343768,292.2046577171L112.72798829578801,291.4479412863L115.2536340380387,290.8292450158L117.86346797169772,290.4149189869L120.38911371394838,289.3899954731L122.9989476476074,288.3514454152L125.60878158126641,291.2650488018L128.13442732351706,288.2005108643L130.74776909848478,288.2556600252L133.27341484073546,288.1964292343L135.88324877439447,286.8596469966L138.4930827080535,285.4905951483L140.85035206748745,286.8090670308L143.4566781598378,286.1138779194L145.98232390208847,285.5377254458L148.59215783574746,287.0706046394L151.11780357799813,284.8982048167L153.72763751165715,286.1574166795L156.3374714453162,283.48517295199997L158.86311718756684,283.1453037924L161.47645896253454,281.9957971262L164.0021047047852,285.0419974687L166.61193863844423,282.1219210712L169.22177257210325,280.8037880525L171.5790419315372,280.6003281537L174.18536802388755,282.02957653650003L176.7110137661382,282.0324893532L179.32084769979724,283.10925354L181.84649344204792,278.6084151553L184.4563273757069,279.996563827L187.06616130936592,283.93283198940003L189.5918070516166,284.7933462184L192.2051488265843,279.7072301273L194.73079456883497,281.9703382985L197.34062850249398,282.5080650531L199.950462436153,280.9506747881L202.30773179558696,280.0892805135L204.9140578879373,280.9766049334L207.43970363018798,278.7143004155L210.04953756384697,279.9208614219L212.57518330609767,273.4416256196L215.18501723975666,279.0923762042L217.79485117341568,279.4558924236L220.32049691566638,279.3202127373L222.93383869063405,271.8806111733L225.45948443288475,277.8293795727L228.06931836654374,274.0922560308L230.67915230020276,275.0327461307L233.1206098510451,273.5230349596L235.72693594339543,273.0679036999L238.25258168564608,274.3065972998L240.8624156193051,272.9283339167L243.3880613615558,271.8995451489L245.9978952952148,273.4768616136L248.60772922887378,275.0117591722L251.13337497112448,274.0460036025L253.74671674609215,273.7451203925L256.2723624883429,276.1228182537L258.88219642200187,274.8243125211L261.49203035566086,269.0607607481L263.84929971509484,267.0062833255L266.4556258074452,261.312330918L268.98127154969586,266.466547677L271.59110548335485,264.4023384665L274.1167512256055,264.5810062138L276.7265851592646,269.6809388102L279.33641909292356,270.5587611028L281.86206483517424,266.4254359948L284.47540661014193,262.8015285408L287.0010523523926,263.8377766827L289.61088628605165,263.8671014366L292.22072021971064,265.5108742961L294.57798957914457,265.3670046256L297.1843156714949,264.57757201009997L299.70996141374565,265.7715855952L302.31979534740464,259.9345335516L304.84544108965525,258.5151593842L307.4552750233143,260.2398353522L310.06510895697335,258.4262047667L312.59075469922396,259.40383429220003L315.2040964741917,253.4465142401L317.72974221644233,253.9502417421L320.3395761501014,261.544722064L322.9494100837604,257.5245237075L325.30667944319435,254.7719095187L327.9130055355447,254.4416126349L330.4386512777953,252.9350329388L333.04848521145436,257.67574253739997L335.57413095370504,256.7688574914L338.1839648873641,251.6137372663L340.7937988210231,259.4979823036L343.31944456327375,252.9555197753L345.93278633824144,252.3751124193L348.4584320804921,252.8413289756L351.06826601415116,251.4983901594L353.67809994781015,250.4324128918L356.11955749865245,242.26447263059998L358.7258835910028,240.9291535567L361.2515293332535,236.4137804358L363.8613632669125,240.3564537602L366.38700900916314,239.6006968684L368.9968429428222,247.2608922887L371.60667687648123,239.88674520520001L374.13232261873185,239.34960619860001L376.7456643936996,236.6697214213L379.2713101359502,241.6942185685L381.88114406960926,244.9808642237L384.49097800326825,241.21377386019998L386.84824736270224,243.4797906742L389.4545734550526,239.1221350694L391.9802191973032,249.0303331676L394.59005313096225,252.1595709794L397.1156988732129,245.2146540755L399.7255328068719,247.20248912390002L402.33536674053096,256.175270734L404.86101248278163,256.6049865832L407.4743542577493,250.7303460707L410,248.4225967161" data-legend="matplotlib" style="stroke: rgb(44, 160, 44); fill: none;"></path><path class="line" d="M2.609833933659021,261.0810810811L5.135479675909686,252.8465432356L7.748821450877388,240.2152251894L10.274467193128054,229.6776894098L12.884301126787074,206.4528445972L15.494135060446094,218.4189359991L17.851404419880048,200.7309363888L20.457730512230388,201.4171287739L22.983376254481055,187.5832354094L25.593210188140073,192.8609692511L28.118855930390737,177.8359511344L30.728689864049763,184.5892735914L33.33852379770878,174.0022630662L35.86416953995945,183.90501319269998L38.47751131492714,182.44246765859998L41.00315705717781,147.9341493399L43.612990990836835,150.17046474079999L46.22282492449585,141.4411982998L48.58009428392981,174.8529666982L51.18642037628015,181.0721616292L53.71206611853081,185.2913251565L56.32190005218983,175.8785163237L58.8475457944405,181.340504758L61.457379728099525,181.13490871740004L64.06721366175853,181.3949662774L66.5928594040092,192.3035683313L69.20620117897691,180.6703264953L71.73184692122757,186.3504916137L74.34168085488659,182.5866143712L76.95151478854561,177.3333333334L79.30878414797957,186.3851354716L81.91511024032991,190.8922889517L84.44075598258058,178.456244248L87.05058991623959,181.4165206737L89.57623565849026,188.1701567811L92.18606959214928,196.5368856293L94.7959035258083,199.5932642997L97.32154926805897,205.2994731172L99.93489104302667,198.46968805179995L102.46053678527733,203.7950719123L105.07037071893636,194.79765795449998L107.68020465259538,203.46334358320001L110.12166220343768,197.01153560749998L112.72798829578801,194.80967782070002L115.2536340380387,197.48139753360002L117.86346797169772,201.4653671853L120.38911371394838,195.9512222726L122.9989476476074,185.1480929044L125.60878158126641,195.5603661084L128.13442732351706,200.6429380728L130.74776909848478,205.5700756933L133.27341484073546,206.53650569770002L135.88324877439447,204.5091823001L138.4930827080535,194.16669402229996L140.85035206748745,198.0595443343L143.4566781598378,199.75040135L145.98232390208847,195.3895473911L148.59215783574746,190.6705539359L151.11780357799813,195.5932280372L153.72763751165715,188.31685967750002L156.3374714453162,204.84313938999998L158.86311718756684,205.7224412125L161.47645896253454,199.81257454430002L164.0021047047852,206.6184619298L166.61193863844423,198.3548984345L169.22177257210325,208.33808795070001L171.5790419315372,198.513656983L174.18536802388755,206.2860438293L176.7110137661382,203.2824822458L179.32084769979724,194.7102373952L181.84649344204792,198.2484932515L184.4563273757069,198.3874530595L187.06616130936592,200.9392648969L189.5918070516166,202.89797031810002L192.2051488265843,199.740469323L194.73079456883497,194.5361724127L197.34062850249398,191.4168467308L199.950462436153,199.37895616870003L202.30773179558696,203.35887483259998L204.9140578879373,206.9496330446L207.43970363018798,196.06295800819998L210.04953756384697,193.2860715032L212.57518330609767,187.2813180366L215.18501723975666,192.4671550659L217.79485117341568,190.14844957079998L220.32049691566638,192.87546232559998L222.93383869063405,197.0085035743L225.45948443288475,186.57977339299998L228.06931836654374,186.3617410449L230.67915230020276,192.11152396490002L233.1206098510451,191.3445302587L235.72693594339543,197.4941886066L238.25258168564608,193.18353494410002L240.8624156193051,196.30731536579998L243.3880613615558,190.9041164602L245.9978952952148,187.2489179892L248.60772922887378,189.2285983067L251.13337497112448,194.0547508474L253.74671674609215,197.74415310749998L256.2723624883429,195.8482306636L258.88219642200187,187.1375642951L261.49203035566086,176.47350287499998L263.84929971509484,184.1965604426L266.4556258074452,186.2526050639L268.98127154969586,178.4682784359L271.59110548335485,182.1711743833L274.1167512256055,173.53566877909998L276.7265851592646,166.664391315L279.33641909292356,155.34579450889998L281.86206483517424,175.48938189589998L284.47540661014193,173.53713876289999L287.0010523523926,164.2354917299L289.61088628605165,158.3640735752L292.22072021971064,159.1419263793L294.57798957914457,167.4251273187L297.1843156714949,161.72824161830002L299.70996141374565,149.64807404910002L302.31979534740464,145.1718494272L304.84544108965525,147.86780586370003L307.4552750233143,145.6744891393L310.06510895697335,149.8452336867L312.59075469922396,168.2670157728L315.2040964741917,161.3545169738L317.72974221644233,150.97041628679997L320.3395761501014,146.992756572L322.9494100837604,141.4433360544L325.30667944319435,138.9024482299L327.9130055355447,132.8205263645L330.4386512777953,136.64506453859997L333.04848521145436,144.7862177911L335.57413095370504,137.0621590102L338.1839648873641,130.24178356939998L340.7937988210231,128.21813335310003L343.31944456327375,141.10892453669996L345.93278633824144,133.8920230017L348.4584320804921,123.78351198780001L351.06826601415116,123.6742893311L353.67809994781015,123.83693445680001L356.11955749865245,112.1335021054L358.7258835910028,114.57705384159999L361.2515293332535,107.5665980563L363.8613632669125,112.331024614L366.38700900916314,86.38678621080001L368.9968429428222,96.71347799829994L371.60667687648123,112.83080075129999L374.13232261873185,112.50932126960001L376.7456643936996,119.69497157590001L379.2713101359502,102.51988204809999L381.88114406960926,95.58274938490001L384.49097800326825,109.81672902539998L386.84824736270224,114.0194693133L389.4545734550526,107.02634573739999L391.9802191973032,90.90004972660003L394.59005313096225,96.61387501049998L397.1156988732129,87.35516710209993L399.7255328068719,88.05275620909998L402.33536674053096,108.35488166619999L404.86101248278163,118.10431574239999L407.4743542577493,121.6410691794L410,121.6084308437" data-legend="django" style="stroke: rgb(214, 39, 40); fill: none;"></path><path class="line" d="M2.609833933659021,300L5.135479675909686,300L7.748821450877388,300L10.274467193128054,300L12.884301126787074,300L15.494135060446094,300L17.851404419880048,300L20.457730512230388,300L22.983376254481055,300L25.593210188140073,300L28.118855930390737,300L30.728689864049763,300L33.33852379770878,300L35.86416953995945,300L38.47751131492714,300L41.00315705717781,300L43.612990990836835,300L46.22282492449585,300L48.58009428392981,300L51.18642037628015,300L53.71206611853081,300L56.32190005218983,300L58.8475457944405,300L61.457379728099525,300L64.06721366175853,300L66.5928594040092,300L69.20620117897691,300L71.73184692122757,300L74.34168085488659,299.8742897371L76.95151478854561,300L79.30878414797957,300L81.91511024032991,299.8949877661L84.44075598258058,300L87.05058991623959,300L89.57623565849026,299.9003299081L92.18606959214928,300L94.7959035258083,299.9017546618L97.32154926805897,300L99.93489104302667,299.632136551L102.46053678527733,299.8068174135L105.07037071893636,299.9137685721L107.68020465259538,299.5954037871L110.12166220343768,299.6252239288L112.72798829578801,299.4557780819L115.2536340380387,299.5526460984L117.86346797169772,298.8497902785L120.38911371394838,299.3633997284L122.9989476476074,298.508416791L125.60878158126641,298.3289658578L128.13442732351706,298.7261915138L130.74776909848478,298.5743864771L133.27341484073546,298.8122192941L135.88324877439447,297.5122632664L138.4930827080535,297.6364770378L140.85035206748745,297.859366141L143.4566781598378,297.4219857741L145.98232390208847,297.1678045665L148.59215783574746,297.4014450501L151.11780357799813,297.1613166949L153.72763751165715,297.4671017754L156.3374714453162,297.6407389932L158.86311718756684,296.9009106973L161.47645896253454,295.8539217357L164.0021047047852,294.5497156769L166.61193863844423,294.747982748L169.22177257210325,296.1074347996L171.5790419315372,295.2224688737L174.18536802388755,294.2844784973L176.7110137661382,295.2806854947L179.32084769979724,294.4519445935L181.84649344204792,294.2276675816L184.4563273757069,294.416218737L187.06616130936592,296.013409441L189.5918070516166,294.7763403041L192.2051488265843,294.8214296468L194.73079456883497,293.5377556626L197.34062850249398,293.4026958159L199.950462436153,294.0284246985L202.30773179558696,293.5396069752L204.9140578879373,292.104496198L207.43970363018798,291.2799042415L210.04953756384697,292.1289776774L212.57518330609767,291.7133754356L215.18501723975666,291.3485694638L217.79485117341568,292.9821781282L220.32049691566638,292.0088550526L222.93383869063405,289.8363654843L225.45948443288475,289.8481895939L228.06931836654374,289.8815248876L230.67915230020276,289.6816274159L233.1206098510451,289.6589966729L235.72693594339543,289.1452387536L238.25258168564608,288.1906099391L240.8624156193051,288.022838642L243.3880613615558,287.2892465887L245.9978952952148,287.5152591278L248.60772922887378,289.2991533397L251.13337497112448,287.4546092802L253.74671674609215,285.4331479371L256.2723624883429,286.4447249461L258.88219642200187,286.69855967670003L261.49203035566086,286.6333268037L263.84929971509484,285.9313590508L266.4556258074452,284.5814107163L268.98127154969586,286.7488777111L271.59110548335485,284.9459809731L274.1167512256055,281.2520698501L276.7265851592646,283.2192813302L279.33641909292356,284.3768478579L281.86206483517424,283.6279511212L284.47540661014193,283.4607117268L287.0010523523926,282.2312300015L289.61088628605165,285.08101575L292.22072021971064,280.1506179027L294.57798957914457,279.6173433631L297.1843156714949,279.3058447007L299.70996141374565,282.7050089187L302.31979534740464,280.55646481179997L304.84544108965525,280.3026176618L307.4552750233143,279.4190173378L310.06510895697335,282.4621468848L312.59075469922396,280.1110257928L315.2040964741917,281.053813935L317.72974221644233,278.1627602272L320.3395761501014,280.1280486151L322.9494100837604,277.9321222519L325.30667944319435,280.1222856856L327.9130055355447,277.3528596142L330.4386512777953,276.5009908415L333.04848521145436,278.5398131176L335.57413095370504,278.0157910964L338.1839648873641,276.9518870643L340.7937988210231,279.1936618415L343.31944456327375,277.0078385381L345.93278633824144,276.7666857439L348.4584320804921,269.7544549327L351.06826601415116,277.5723052368L353.67809994781015,277.6841578377L356.11955749865245,277.073699982L358.7258835910028,277.7933291823L361.2515293332535,275.2029950893L363.8613632669125,274.3128089941L366.38700900916314,276.2651984679L368.9968429428222,278.2799041601L371.60667687648123,279.0137157817L374.13232261873185,277.3448763201L376.7456643936996,279.5107922246L379.2713101359502,277.4372263426L381.88114406960926,279.7457027637L384.49097800326825,276.2825797451L386.84824736270224,278.4977464522L389.4545734550526,278.7080432203L391.9802191973032,278.8040775734L394.59005313096225,278.7804548699L397.1156988732129,278.3001808319L399.7255328068719,279.417919489L402.33536674053096,279.8490794694L404.86101248278163,283.0892218247L407.4743542577493,278.0791793959L410,280.0585400148" data-legend="scikit-learn" style="stroke: rgb(148, 103, 189); fill: none;"></path></g></g><g transform="translate(20, 150)"><text transform="rotate(-90)" x="-50" y="0" dy="1em" class="axis-label y-axis-label" style="text-anchor: middle; font-weight: bold;">% of Stack Overflow questions that month</text></g><g class="legend" transform="translate(530, 30)" style="font-size: 12px;"><text class="legend-title" style="font-weight: bold;">Tag</text><g class="legend-items" transform="translate(0,20)"><text y="0em" x="1em">pandas</text><text y="1em" x="1em">django</text><text y="2em" x="1em">numpy</text><text y="3em" x="1em">matplotlib</text><text y="4em" x="1em">scikit-learn</text><circle cy="-0.25em" cx="0" r="0.4em" style="fill: rgb(31, 119, 180);"></circle><circle cy="0.75em" cx="0" r="0.4em" style="fill: rgb(214, 39, 40);"></circle><circle cy="1.75em" cx="0" r="0.4em" style="fill: rgb(255, 127, 14);"></circle><circle cy="2.75em" cx="0" r="0.4em" style="fill: rgb(44, 160, 44);"></circle><circle cy="3.75em" cx="0" r="0.4em" style="fill: rgb(148, 103, 189);"></circle></g><rect class="legend-box"></rect></g></svg>
        